{
  "source": "C:\\Users\\Peter\\Desktop\\stuff\\MIUN\\quantitative_research\\video_compression\\videos\\BVI-HD\\BVI-HD_CDVL_videos\\ORIG\\MartialArts_1920x1080_60fps.mp4",
  "output": "C:\\Users\\Peter\\Desktop\\stuff\\MIUN\\quantitative_research\\video_compression\\compressed_videos\\BVI-HD\\av1\\3\\MartialArts_1920x1080_60fps_av1.mkv",
  "codec": "av1",
  "ok": "Input #0, mov,mp4,m4a,3gp,3g2,mj2, from 'C:\\Users\\Peter\\Desktop\\stuff\\MIUN\\quantitative_research\\video_compression\\videos\\BVI-HD\\BVI-HD_CDVL_videos\\ORIG\\MartialArts_1920x1080_60fps.mp4':\n  Metadata:\n    major_brand     : isom\n    minor_version   : 512\n    compatible_brands: isomiso2avc1mp41\n    encoder         : Lavf54.28.101\n  Duration: 00:00:05.00, start: 0.000000, bitrate: 120609 kb/s\n  Stream #0:0[0x1](und): Video: h264 (High 4:4:4 Predictive) (avc1 / 0x31637661), yuv420p(progressive), 1920x1080, 120605 kb/s, 60 fps, 60 tbr, 60 tbn (default)\n    Metadata:\n      handler_name    : VideoHandler\n      vendor_id       : [0][0][0][0]\n[out#0/matroska @ 00000181743097c0] Codec AVOption b:a (set bitrate (in bits/s)) has not been used for any stream. The most likely reason is either wrong type (e.g. a video option with no video streams) or that it is a private option of some decoder which was not actually used for any stream.\nStream mapping:\n  Stream #0:0 -> #0:0 (h264 (native) -> av1 (libsvtav1))\nPress [q] to stop, [?] for help\nSvt[info]: -------------------------------------------\nSvt[info]: SVT [version]:\tSVT-AV1 Encoder Lib v3.1.0-19-g6ecfe8ec\nSvt[info]: SVT [build]  :\tGCC 15.2.0\t 64 bit\nSvt[info]: LIB Build date: Aug 17 2025 11:37:13\nSvt[info]: -------------------------------------------\nSvt[info]: Level of Parallelism: 5\nSvt[info]: Number of PPCS 93\nSvt[info]: [asm level on system : up to avx2]\nSvt[info]: [asm level selected : up to avx2]\nSvt[info]: -------------------------------------------\nSvt[info]: SVT [config]: main profile\ttier (auto)\tlevel (auto)\nSvt[info]: SVT [config]: width / height / fps numerator / fps denominator \t\t: 1920 / 1080 / 60 / 1\nSvt[info]: SVT [config]: bit-depth / color format \t\t\t\t\t: 8 / YUV420\nSvt[info]: SVT [config]: preset / tune / pred struct \t\t\t\t\t: 4 / PSNR / random access\nSvt[info]: SVT [config]: gop size / mini-gop size / key-frame type \t\t\t: 321 / 16 / key frame\nSvt[info]: SVT [config]: BRC mode / target bitrate (kbps)\t\t\t\t: VBR / 3000 \nSvt[info]: SVT [config]: AQ mode / Variance Boost \t\t\t\t\t: 2 / 0\nSvt[info]: SVT [config]: sharpness / luminance-based QP bias \t\t\t\t: 0 / 0\nSvt[info]: SVT [config]: QP scale compress strength \t\t\t\t\t: 0\nSvt[info]: -------------------------------------------\nOutput #0, matroska, to 'C:\\Users\\Peter\\Desktop\\stuff\\MIUN\\quantitative_research\\video_compression\\compressed_videos\\BVI-HD\\av1\\3\\MartialArts_1920x1080_60fps_av1.mkv':\n  Metadata:\n    major_brand     : isom\n    minor_version   : 512\n    compatible_brands: isomiso2avc1mp41\n    encoder         : Lavf62.3.100\n  Stream #0:0(und): Video: av1 (AV01 / 0x31305641), yuv420p(tv, progressive), 1920x1080, q=2-31, 3000 kb/s, 60 fps, 1k tbn (default)\n    Metadata:\n      encoder         : Lavc62.11.100 libsvtav1\n      handler_name    : VideoHandler\n      vendor_id       : [0][0][0][0]\n    Side data:\n      cpb: bitrate max/min/avg: 0/0/3000000 buffer size: 3000000 vbv_delay: N/A\nframe=    0 fps=0.0 q=0.0 size=       0KiB time=N/A bitrate=N/A speed=N/A elapsed=0:00:01.05    \nframe=    0 fps=0.0 q=0.0 size=       0KiB time=N/A bitrate=N/A speed=N/A elapsed=0:00:01.57    \nframe=    0 fps=0.0 q=0.0 size=       0KiB time=N/A bitrate=N/A speed=N/A elapsed=0:00:02.10    \nframe=    0 fps=0.0 q=0.0 size=       0KiB time=N/A bitrate=N/A speed=N/A elapsed=0:00:02.69    \nframe=    0 fps=0.0 q=0.0 size=       0KiB time=N/A bitrate=N/A speed=N/A elapsed=0:00:03.21    \nframe=    1 fps=0.3 q=5.0 size=       1KiB time=00:00:00.00 bitrate=N/A speed=   0x elapsed=0:00:03.73    \nframe=    1 fps=0.2 q=5.0 size=       1KiB time=00:00:00.00 bitrate=N/A speed=   0x elapsed=0:00:04.26    \nframe=    3 fps=0.6 q=30.0 size=       1KiB time=00:00:00.01 bitrate= 341.8kbits/s speed=0.00347x elapsed=0:00:04.79    \nframe=    6 fps=1.1 q=33.0 size=       1KiB time=00:00:00.08 bitrate=  68.4kbits/s speed=0.0156x elapsed=0:00:05.34    \nframe=    9 fps=1.5 q=24.0 size=       1KiB time=00:00:00.13 bitrate=  42.7kbits/s speed=0.0228x elapsed=0:00:05.85    \nframe=   13 fps=2.0 q=27.0 size=       1KiB time=00:00:00.20 bitrate=  28.5kbits/s speed=0.0314x elapsed=0:00:06.37    \nframe=   18 fps=2.6 q=25.0 size=       1KiB time=00:00:00.28 bitrate=  20.1kbits/s speed=0.0408x elapsed=0:00:06.94    \nframe=   21 fps=2.8 q=27.0 size=       1KiB time=00:00:00.33 bitrate=  17.1kbits/s speed=0.0447x elapsed=0:00:07.45    \nframe=   23 fps=2.9 q=25.0 size=       1KiB time=00:00:00.36 bitrate=  15.5kbits/s speed=0.0459x elapsed=0:00:07.99    \nframe=   27 fps=3.2 q=23.0 size=       1KiB time=00:00:00.43 bitrate=  13.1kbits/s speed=0.0507x elapsed=0:00:08.54    \nframe=   30 fps=3.3 q=18.0 size=       1KiB time=00:00:00.48 bitrate=  11.8kbits/s speed=0.0529x elapsed=0:00:09.13    \nframe=   32 fps=3.3 q=18.0 size=       1KiB time=00:00:00.51 bitrate=  11.0kbits/s speed=0.0532x elapsed=0:00:09.72    \nframe=   35 fps=3.4 q=21.0 size=       1KiB time=00:00:00.56 bitrate=  10.1kbits/s speed=0.0553x elapsed=0:00:10.25    \nframe=   37 fps=3.4 q=25.0 size=       1KiB time=00:00:00.60 bitrate=   9.5kbits/s speed=0.0557x elapsed=0:00:10.77    \nframe=   39 fps=3.5 q=20.0 size=       1KiB time=00:00:00.63 bitrate=   9.0kbits/s speed=0.056x elapsed=0:00:11.30    \nframe=   40 fps=3.4 q=17.0 size=       1KiB time=00:00:00.65 bitrate=   8.8kbits/s speed=0.0548x elapsed=0:00:11.85    \nframe=   43 fps=3.5 q=20.0 size=       1KiB time=00:00:00.70 bitrate=   8.1kbits/s speed=0.0563x elapsed=0:00:12.43    \nframe=   46 fps=3.5 q=19.0 size=       1KiB time=00:00:00.75 bitrate=   7.6kbits/s speed=0.0577x elapsed=0:00:12.98    \nframe=   50 fps=3.7 q=20.0 size=       1KiB time=00:00:00.81 bitrate=   7.0kbits/s speed=0.0604x elapsed=0:00:13.52    \nframe=   52 fps=3.7 q=20.0 size=       1KiB time=00:00:00.85 bitrate=   6.7kbits/s speed=0.0605x elapsed=0:00:14.05    \nframe=   53 fps=3.6 q=25.0 size=       1KiB time=00:00:00.86 bitrate=   6.6kbits/s speed=0.0594x elapsed=0:00:14.58    \nframe=   54 fps=3.6 q=21.0 size=       1KiB time=00:00:00.88 bitrate=   6.4kbits/s speed=0.0584x elapsed=0:00:15.11    \nframe=   55 fps=3.5 q=25.0 size=       1KiB time=00:00:00.90 bitrate=   6.3kbits/s speed=0.0575x elapsed=0:00:15.66    \nframe=   58 fps=3.6 q=22.0 size=       1KiB time=00:00:00.95 bitrate=   6.0kbits/s speed=0.0586x elapsed=0:00:16.21    \nframe=   59 fps=3.5 q=26.0 size=       1KiB time=00:00:00.96 bitrate=   5.9kbits/s speed=0.0577x elapsed=0:00:16.76    \nframe=   60 fps=3.5 q=22.0 size=       1KiB time=00:00:00.98 bitrate=   5.8kbits/s speed=0.0568x elapsed=0:00:17.31    \nframe=   63 fps=3.5 q=26.0 size=       1KiB time=00:00:01.03 bitrate=   5.5kbits/s speed=0.0576x elapsed=0:00:17.94    \nframe=   64 fps=3.5 q=24.0 size=       1KiB time=00:00:01.05 bitrate=   5.4kbits/s speed=0.0566x elapsed=0:00:18.53    \nframe=   67 fps=3.5 q=28.0 size=       1KiB time=00:00:01.10 bitrate=   5.2kbits/s speed=0.0577x elapsed=0:00:19.07    \nframe=   69 fps=3.5 q=25.0 size=       1KiB time=00:00:01.13 bitrate=   5.0kbits/s speed=0.0577x elapsed=0:00:19.64    \nframe=   71 fps=3.5 q=25.0 size=       1KiB time=00:00:01.16 bitrate=   4.9kbits/s speed=0.0578x elapsed=0:00:20.19    \nframe=   72 fps=3.5 q=22.0 size=       1KiB time=00:00:01.18 bitrate=   4.8kbits/s speed=0.0571x elapsed=0:00:20.72    \nframe=   75 fps=3.5 q=27.0 size=       1KiB time=00:00:01.23 bitrate=   4.6kbits/s speed=0.0581x elapsed=0:00:21.24    \nframe=   78 fps=3.6 q=21.0 size=       1KiB time=00:00:01.28 bitrate=   4.4kbits/s speed=0.0589x elapsed=0:00:21.77    \nframe=   82 fps=3.7 q=22.0 size=       1KiB time=00:00:01.35 bitrate=   4.2kbits/s speed=0.0605x elapsed=0:00:22.29    \nframe=   84 fps=3.7 q=22.0 size=       1KiB time=00:00:01.38 bitrate=   4.1kbits/s speed=0.0606x elapsed=0:00:22.81    \nframe=   87 fps=3.7 q=25.0 size=       1KiB time=00:00:01.43 bitrate=   4.0kbits/s speed=0.0614x elapsed=0:00:23.35    \nframe=   90 fps=3.8 q=21.0 size=       1KiB time=00:00:01.48 bitrate=   3.8kbits/s speed=0.0621x elapsed=0:00:23.90    \nframe=   92 fps=3.8 q=21.0 size=       1KiB time=00:00:01.51 bitrate=   3.8kbits/s speed=0.0621x elapsed=0:00:24.43    \nframe=   97 fps=3.9 q=4.0 size=       1KiB time=00:00:01.60 bitrate=   3.6kbits/s speed=0.064x elapsed=0:00:24.99    \nframe=  100 fps=3.9 q=21.0 size=       1KiB time=00:00:01.65 bitrate=   3.5kbits/s speed=0.0647x elapsed=0:00:25.50    \nframe=  102 fps=3.9 q=20.0 size=       1KiB time=00:00:01.68 bitrate=   3.4kbits/s speed=0.0647x elapsed=0:00:26.01    \nframe=  106 fps=4.0 q=20.0 size=       1KiB time=00:00:01.73 bitrate=   3.3kbits/s speed=0.0653x elapsed=0:00:26.54    \nframe=  108 fps=4.0 q=19.0 size=       1KiB time=00:00:01.78 bitrate=   3.2kbits/s speed=0.0658x elapsed=0:00:27.08    \nframe=  112 fps=4.1 q=20.0 size=       1KiB time=00:00:01.85 bitrate=   3.1kbits/s speed=0.0669x elapsed=0:00:27.63    \nframe=  115 fps=4.1 q=29.0 size=       1KiB time=00:00:01.90 bitrate=   3.0kbits/s speed=0.0675x elapsed=0:00:28.16    \nframe=  117 fps=4.1 q=27.0 size=       1KiB time=00:00:01.93 bitrate=   2.9kbits/s speed=0.0674x elapsed=0:00:28.67    \nframe=  118 fps=4.0 q=21.0 size=       1KiB time=00:00:01.95 bitrate=   2.9kbits/s speed=0.0668x elapsed=0:00:29.19    \nframe=  120 fps=4.0 q=22.0 size=       1KiB time=00:00:01.98 bitrate=   2.9kbits/s speed=0.0667x elapsed=0:00:29.72    \nframe=  123 fps=4.1 q=28.0 size=       1KiB time=00:00:02.03 bitrate=   2.8kbits/s speed=0.0672x elapsed=0:00:30.25    \nframe=  126 fps=4.1 q=21.0 size=       1KiB time=00:00:02.08 bitrate=   2.7kbits/s speed=0.0677x elapsed=0:00:30.78    \nframe=  129 fps=4.1 q=4.0 size=       1KiB time=00:00:02.13 bitrate=   2.7kbits/s speed=0.0681x elapsed=0:00:31.32    \nframe=  132 fps=4.1 q=20.0 size=       1KiB time=00:00:02.18 bitrate=   2.6kbits/s speed=0.0685x elapsed=0:00:31.86    \nframe=  134 fps=4.1 q=20.0 size=       1KiB time=00:00:02.21 bitrate=   2.6kbits/s speed=0.0684x elapsed=0:00:32.40    \nframe=  136 fps=4.1 q=21.0 size=       1KiB time=00:00:02.25 bitrate=   2.5kbits/s speed=0.0683x elapsed=0:00:32.92    \nframe=  139 fps=4.2 q=24.0 size=       1KiB time=00:00:02.30 bitrate=   2.5kbits/s speed=0.0687x elapsed=0:00:33.47    \nframe=  140 fps=4.1 q=22.0 size=       1KiB time=00:00:02.31 bitrate=   2.5kbits/s speed=0.0681x elapsed=0:00:34.02    \nframe=  145 fps=4.2 q=6.0 size=       1KiB time=00:00:02.40 bitrate=   2.4kbits/s speed=0.0694x elapsed=0:00:34.57    \nframe=  147 fps=4.2 q=24.0 size=       1KiB time=00:00:02.43 bitrate=   2.3kbits/s speed=0.0693x elapsed=0:00:35.11    \nframe=  149 fps=4.2 q=27.0 size=       1KiB time=00:00:02.46 bitrate=   2.3kbits/s speed=0.0692x elapsed=0:00:35.64    \nframe=  151 fps=4.2 q=25.0 size=       1KiB time=00:00:02.50 bitrate=   2.3kbits/s speed=0.0691x elapsed=0:00:36.18    \nframe=  152 fps=4.1 q=23.0 size=       1KiB time=00:00:02.51 bitrate=   2.3kbits/s speed=0.0686x elapsed=0:00:36.70    \nframe=  155 fps=4.2 q=26.0 size=       1KiB time=00:00:02.56 bitrate=   2.2kbits/s speed=0.0689x elapsed=0:00:37.23    \nframe=  157 fps=4.2 q=26.0 size=       1KiB time=00:00:02.60 bitrate=   2.2kbits/s speed=0.0688x elapsed=0:00:37.77    \nframe=  161 fps=4.2 q=4.0 size=       1KiB time=00:00:02.66 bitrate=   2.1kbits/s speed=0.0696x elapsed=0:00:38.30    \nframe=  163 fps=4.2 q=26.0 size=       1KiB time=00:00:02.70 bitrate=   2.1kbits/s speed=0.0695x elapsed=0:00:38.86    \nframe=  165 fps=4.2 q=27.0 size=       1KiB time=00:00:02.73 bitrate=   2.1kbits/s speed=0.0694x elapsed=0:00:39.38    \nframe=  166 fps=4.2 q=25.0 size=       1KiB time=00:00:02.75 bitrate=   2.1kbits/s speed=0.0689x elapsed=0:00:39.91    \nframe=  168 fps=4.2 q=25.0 size=       1KiB time=00:00:02.78 bitrate=   2.0kbits/s speed=0.0688x elapsed=0:00:40.44    \nframe=  171 fps=4.2 q=28.0 size=       1KiB time=00:00:02.81 bitrate=   2.0kbits/s speed=0.0687x elapsed=0:00:41.00    \nframe=  172 fps=4.1 q=21.0 size=       1KiB time=00:00:02.85 bitrate=   2.0kbits/s speed=0.0685x elapsed=0:00:41.59    \nframe=  176 fps=4.2 q=27.0 size=       1KiB time=00:00:02.91 bitrate=   2.0kbits/s speed=0.0692x elapsed=0:00:42.14    \nframe=  178 fps=4.2 q=28.0 size=       1KiB time=00:00:02.95 bitrate=   1.9kbits/s speed=0.069x elapsed=0:00:42.72    \nframe=  179 fps=4.1 q=29.0 size=       1KiB time=00:00:02.96 bitrate=   1.9kbits/s speed=0.0685x elapsed=0:00:43.32    \nframe=  181 fps=4.1 q=26.0 size=       1KiB time=00:00:03.00 bitrate=   1.9kbits/s speed=0.0684x elapsed=0:00:43.85    \nframe=  182 fps=4.1 q=28.0 size=       1KiB time=00:00:03.01 bitrate=   1.9kbits/s speed=0.068x elapsed=0:00:44.37    \nframe=  183 fps=4.1 q=29.0 size=       1KiB time=00:00:03.03 bitrate=   1.9kbits/s speed=0.0675x elapsed=0:00:44.91    \nframe=  186 fps=4.1 q=28.0 size=       1KiB time=00:00:03.08 bitrate=   1.8kbits/s speed=0.0678x elapsed=0:00:45.47    \nframe=  188 fps=4.1 q=24.0 size=       1KiB time=00:00:03.11 bitrate=   1.8kbits/s speed=0.0677x elapsed=0:00:46.01    \nframe=  192 fps=4.1 q=29.0 size=       1KiB time=00:00:03.18 bitrate=   1.8kbits/s speed=0.0684x elapsed=0:00:46.54    \nframe=  195 fps=4.1 q=29.0 size=       1KiB time=00:00:03.23 bitrate=   1.8kbits/s speed=0.0687x elapsed=0:00:47.07    \nframe=  196 fps=4.1 q=29.0 size=       1KiB time=00:00:03.25 bitrate=   1.8kbits/s speed=0.0683x elapsed=0:00:47.59    \nframe=  198 fps=4.1 q=29.0 size=       1KiB time=00:00:03.28 bitrate=   1.7kbits/s speed=0.0682x elapsed=0:00:48.13    \nframe=  200 fps=4.1 q=29.0 size=       1KiB time=00:00:03.31 bitrate=   1.7kbits/s speed=0.0681x elapsed=0:00:48.72    \nframe=  205 fps=4.2 q=26.0 size=       1KiB time=00:00:03.40 bitrate=   1.7kbits/s speed=0.069x elapsed=0:00:49.26    \nframe=  207 fps=4.2 q=28.0 size=       1KiB time=00:00:03.43 bitrate=   1.7kbits/s speed=0.0689x elapsed=0:00:49.80    \nframe=  209 fps=4.1 q=10.0 size=       1KiB time=00:00:03.46 bitrate=   1.6kbits/s speed=0.0688x elapsed=0:00:50.37    \nframe=  213 fps=4.2 q=27.0 size=       1KiB time=00:00:03.53 bitrate=   1.6kbits/s speed=0.0694x elapsed=0:00:50.92    \nframe=  213 fps=4.1 q=27.0 size=       1KiB time=00:00:03.53 bitrate=   1.6kbits/s speed=0.0686x elapsed=0:00:51.48    \nframe=  217 fps=4.2 q=21.0 size=       1KiB time=00:00:03.60 bitrate=   1.6kbits/s speed=0.0692x elapsed=0:00:52.00    \nframe=  217 fps=4.1 q=21.0 size=       1KiB time=00:00:03.60 bitrate=   1.6kbits/s speed=0.0685x elapsed=0:00:52.52    \nframe=  221 fps=4.2 q=26.0 size=       1KiB time=00:00:03.66 bitrate=   1.6kbits/s speed=0.0691x elapsed=0:00:53.06    \nframe=  221 fps=4.1 q=26.0 size=       1KiB time=00:00:03.66 bitrate=   1.6kbits/s speed=0.0683x elapsed=0:00:53.65    \nframe=  225 fps=4.2 q=12.0 size=       1KiB time=00:00:03.73 bitrate=   1.5kbits/s speed=0.0689x elapsed=0:00:54.20    \nframe=  229 fps=4.2 q=28.0 size=       1KiB time=00:00:03.80 bitrate=   1.5kbits/s speed=0.0694x elapsed=0:00:54.78    \nframe=  229 fps=4.1 q=28.0 size=       1KiB time=00:00:03.80 bitrate=   1.5kbits/s speed=0.0686x elapsed=0:00:55.36    \nframe=  233 fps=4.2 q=22.0 size=       1KiB time=00:00:03.86 bitrate=   1.5kbits/s speed=0.0692x elapsed=0:00:55.90    \nframe=  233 fps=4.1 q=22.0 size=       1KiB time=00:00:03.86 bitrate=   1.5kbits/s speed=0.0685x elapsed=0:00:56.46    \nframe=  237 fps=4.2 q=27.0 size=       1KiB time=00:00:03.93 bitrate=   1.4kbits/s speed=0.069x elapsed=0:00:57.03    \nframe=  239 fps=4.2 q=29.0 size=       1KiB time=00:00:03.96 bitrate=   1.4kbits/s speed=0.0689x elapsed=0:00:57.57    \nframe=  241 fps=4.1 q=13.0 size=       1KiB time=00:00:04.00 bitrate=   1.4kbits/s speed=0.0689x elapsed=0:00:58.09    \nframe=  245 fps=4.2 q=28.0 size=       1KiB time=00:00:04.06 bitrate=   1.4kbits/s speed=0.0693x elapsed=0:00:58.66    \nframe=  247 fps=4.2 q=28.0 size=       1KiB time=00:00:04.06 bitrate=   1.4kbits/s speed=0.0687x elapsed=0:00:59.18    \nframe=  249 fps=4.2 q=22.0 size=       1KiB time=00:00:04.13 bitrate=   1.4kbits/s speed=0.0691x elapsed=0:00:59.77    \nframe=  249 fps=4.1 q=22.0 size=       1KiB time=00:00:04.13 bitrate=   1.4kbits/s speed=0.0684x elapsed=0:01:00.38    \nframe=  251 fps=4.1 q=30.0 size=       1KiB time=00:00:04.16 bitrate=   1.4kbits/s speed=0.0684x elapsed=0:01:00.92    \nframe=  253 fps=4.1 q=27.0 size=       1KiB time=00:00:04.20 bitrate=   1.4kbits/s speed=0.0683x elapsed=0:01:01.45    \nframe=  255 fps=4.1 q=29.0 size=       1KiB time=00:00:04.23 bitrate=   1.3kbits/s speed=0.0683x elapsed=0:01:01.98    \nframe=  257 fps=4.1 q=13.0 size=       1KiB time=00:00:04.26 bitrate=   1.3kbits/s speed=0.0682x elapsed=0:01:02.51    \nframe=  261 fps=4.1 q=28.0 size=       1KiB time=00:00:04.33 bitrate=   1.3kbits/s speed=0.0687x elapsed=0:01:03.03    \nframe=  263 fps=4.1 q=27.0 size=       1KiB time=00:00:04.36 bitrate=   1.3kbits/s speed=0.0687x elapsed=0:01:03.58    \nframe=  265 fps=4.1 q=22.0 size=       1KiB time=00:00:04.40 bitrate=   1.3kbits/s speed=0.0686x elapsed=0:01:04.13    \nframe=  265 fps=4.1 q=22.0 size=       1KiB time=00:00:04.40 bitrate=   1.3kbits/s speed=0.068x elapsed=0:01:04.66    \nframe=  269 fps=4.1 q=29.0 size=       1KiB time=00:00:04.46 bitrate=   1.3kbits/s speed=0.0685x elapsed=0:01:05.20    \nframe=  271 fps=4.1 q=30.0 size=       1KiB time=00:00:04.50 bitrate=   1.3kbits/s speed=0.0685x elapsed=0:01:05.74    \nframe=  273 fps=4.1 q=12.0 size=       1KiB time=00:00:04.53 bitrate=   1.3kbits/s speed=0.0684x elapsed=0:01:06.30    \nframe=  277 fps=4.1 q=33.0 size=       1KiB time=00:00:04.60 bitrate=   1.2kbits/s speed=0.0688x elapsed=0:01:06.82    \nframe=  279 fps=4.1 q=32.0 size=       1KiB time=00:00:04.63 bitrate=   1.2kbits/s speed=0.0687x elapsed=0:01:07.42    \nframe=  281 fps=4.1 q=28.0 size=       1KiB time=00:00:04.66 bitrate=   1.2kbits/s speed=0.0686x elapsed=0:01:08.03    \nframe=  281 fps=4.1 q=28.0 size=       1KiB time=00:00:04.66 bitrate=   1.2kbits/s speed=0.068x elapsed=0:01:08.57    \nframe=  285 fps=4.1 q=33.0 size=       1KiB time=00:00:04.73 bitrate=   1.2kbits/s speed=0.0684x elapsed=0:01:09.15    \nframe=  285 fps=4.1 q=33.0 size=       1KiB time=00:00:04.73 bitrate=   1.2kbits/s speed=0.0679x elapsed=0:01:09.75    \nframe=  293 fps=4.2 q=28.0 size=       1KiB time=00:00:04.86 bitrate=   1.2kbits/s speed=0.0692x elapsed=0:01:10.30    \n[out#0/matroska @ 00000181743097c0] video:1664KiB audio:0KiB subtitle:0KiB other streams:0KiB global headers:0KiB muxing overhead: 0.124910%\nframe=  300 fps=4.2 q=35.0 Lsize=    1666KiB time=00:00:04.98 bitrate=2738.3kbits/s speed=0.0705x elapsed=0:01:10.73    \n",
  "seconds": 71.65847611427307,
  "probe_out": {}
}